<mxfile host="Electron" agent="Mozilla/5.0 (Windows NT 10.0; Win64; x64) AppleWebKit/537.36 (KHTML, like Gecko) draw.io/24.7.17 Chrome/128.0.6613.36 Electron/32.0.1 Safari/537.36" version="24.7.17">
  <diagram name="第 1 页" id="RIUy3Fn0ZehvJpWkt5wW">
    <mxGraphModel dx="1848" dy="1772" grid="1" gridSize="10" guides="1" tooltips="1" connect="1" arrows="1" fold="1" page="1" pageScale="1" pageWidth="827" pageHeight="1169" math="0" shadow="0">
      <root>
        <mxCell id="0" />
        <mxCell id="1" parent="0" />
        <mxCell id="-_FYaDfTA1gfNJCsHM5T-1" value="sdmmchost_t" style="swimlane;fontStyle=1;childLayout=stackLayout;horizontal=1;startSize=30;horizontalStack=0;resizeParent=1;resizeParentMax=0;resizeLast=0;collapsible=1;marginBottom=0;whiteSpace=wrap;fillColor=#60a917;strokeColor=#2D7600;fontColor=#ffffff;" vertex="1" parent="1">
          <mxGeometry x="250" y="210" width="180" height="510" as="geometry" />
        </mxCell>
        <mxCell id="-_FYaDfTA1gfNJCsHM5T-2" value="void *dev" style="text;strokeColor=#b85450;fillColor=#f8cecc;align=left;verticalAlign=middle;spacingLeft=4;spacingRight=4;overflow=hidden;points=[[0,0.5],[1,0.5]];portConstraint=eastwest;rotatable=0;whiteSpace=wrap;fontStyle=1;html=1;" vertex="1" parent="-_FYaDfTA1gfNJCsHM5T-1">
          <mxGeometry y="30" width="180" height="30" as="geometry" />
        </mxCell>
        <mxCell id="-_FYaDfTA1gfNJCsHM5T-3" value="sdmmchost_ops_t ops" style="text;strokeColor=#b85450;fillColor=#f8cecc;align=left;verticalAlign=middle;spacingLeft=4;spacingRight=4;overflow=hidden;points=[[0,0.5],[1,0.5]];portConstraint=eastwest;rotatable=0;fontStyle=1;whiteSpace=wrap;" vertex="1" parent="-_FYaDfTA1gfNJCsHM5T-1">
          <mxGeometry y="60" width="180" height="30" as="geometry" />
        </mxCell>
        <mxCell id="-_FYaDfTA1gfNJCsHM5T-4" value="sdmmchost_config_t config" style="text;strokeColor=#82b366;fillColor=#d5e8d4;align=left;verticalAlign=middle;spacingLeft=4;spacingRight=4;overflow=hidden;points=[[0,0.5],[1,0.5]];portConstraint=eastwest;rotatable=0;fontStyle=1;whiteSpace=wrap;" vertex="1" parent="-_FYaDfTA1gfNJCsHM5T-1">
          <mxGeometry y="90" width="180" height="30" as="geometry" />
        </mxCell>
        <mxCell id="-_FYaDfTA1gfNJCsHM5T-5" value="uint32_t currVoltage" style="text;strokeColor=#82b366;fillColor=#d5e8d4;align=left;verticalAlign=middle;spacingLeft=4;spacingRight=4;overflow=hidden;points=[[0,0.5],[1,0.5]];portConstraint=eastwest;rotatable=0;fontStyle=1;whiteSpace=wrap;" vertex="1" parent="-_FYaDfTA1gfNJCsHM5T-1">
          <mxGeometry y="120" width="180" height="30" as="geometry" />
        </mxCell>
        <mxCell id="-_FYaDfTA1gfNJCsHM5T-6" value="uint32_t currBusWidth" style="text;strokeColor=#82b366;fillColor=#d5e8d4;align=left;verticalAlign=middle;spacingLeft=4;spacingRight=4;overflow=hidden;points=[[0,0.5],[1,0.5]];portConstraint=eastwest;rotatable=0;fontStyle=1;whiteSpace=wrap;" vertex="1" parent="-_FYaDfTA1gfNJCsHM5T-1">
          <mxGeometry y="150" width="180" height="30" as="geometry" />
        </mxCell>
        <mxCell id="-_FYaDfTA1gfNJCsHM5T-7" value="uint32_t currClockFreq" style="text;strokeColor=#82b366;fillColor=#d5e8d4;align=left;verticalAlign=middle;spacingLeft=4;spacingRight=4;overflow=hidden;points=[[0,0.5],[1,0.5]];portConstraint=eastwest;rotatable=0;fontStyle=1;whiteSpace=wrap;" vertex="1" parent="-_FYaDfTA1gfNJCsHM5T-1">
          <mxGeometry y="180" width="180" height="30" as="geometry" />
        </mxCell>
        <mxCell id="-_FYaDfTA1gfNJCsHM5T-8" value="uint32_t sourceClock_Hz" style="text;strokeColor=#82b366;fillColor=#d5e8d4;align=left;verticalAlign=middle;spacingLeft=4;spacingRight=4;overflow=hidden;points=[[0,0.5],[1,0.5]];portConstraint=eastwest;rotatable=0;fontStyle=1;whiteSpace=wrap;" vertex="1" parent="-_FYaDfTA1gfNJCsHM5T-1">
          <mxGeometry y="210" width="180" height="30" as="geometry" />
        </mxCell>
        <mxCell id="-_FYaDfTA1gfNJCsHM5T-9" value="uint32_t capability" style="text;strokeColor=#82b366;fillColor=#d5e8d4;align=left;verticalAlign=middle;spacingLeft=4;spacingRight=4;overflow=hidden;points=[[0,0.5],[1,0.5]];portConstraint=eastwest;rotatable=0;fontStyle=1;whiteSpace=wrap;" vertex="1" parent="-_FYaDfTA1gfNJCsHM5T-1">
          <mxGeometry y="240" width="180" height="30" as="geometry" />
        </mxCell>
        <mxCell id="-_FYaDfTA1gfNJCsHM5T-10" value="uint32_t maxBlockCount" style="text;strokeColor=#82b366;fillColor=#d5e8d4;align=left;verticalAlign=middle;spacingLeft=4;spacingRight=4;overflow=hidden;points=[[0,0.5],[1,0.5]];portConstraint=eastwest;rotatable=0;fontStyle=1;whiteSpace=wrap;" vertex="1" parent="-_FYaDfTA1gfNJCsHM5T-1">
          <mxGeometry y="270" width="180" height="30" as="geometry" />
        </mxCell>
        <mxCell id="-_FYaDfTA1gfNJCsHM5T-11" value="uint32_t maxBlockSize" style="text;strokeColor=#82b366;fillColor=#d5e8d4;align=left;verticalAlign=middle;spacingLeft=4;spacingRight=4;overflow=hidden;points=[[0,0.5],[1,0.5]];portConstraint=eastwest;rotatable=0;fontStyle=1;whiteSpace=wrap;" vertex="1" parent="-_FYaDfTA1gfNJCsHM5T-1">
          <mxGeometry y="300" width="180" height="30" as="geometry" />
        </mxCell>
        <mxCell id="-_FYaDfTA1gfNJCsHM5T-12" value="uint8_t tuningType" style="text;strokeColor=#82b366;fillColor=#d5e8d4;align=left;verticalAlign=middle;spacingLeft=4;spacingRight=4;overflow=hidden;points=[[0,0.5],[1,0.5]];portConstraint=eastwest;rotatable=0;fontStyle=1;whiteSpace=wrap;" vertex="1" parent="-_FYaDfTA1gfNJCsHM5T-1">
          <mxGeometry y="330" width="180" height="30" as="geometry" />
        </mxCell>
        <mxCell id="-_FYaDfTA1gfNJCsHM5T-13" value="sdmmc_osa_event_t hostEvent" style="text;strokeColor=#82b366;fillColor=#d5e8d4;align=left;verticalAlign=middle;spacingLeft=4;spacingRight=4;overflow=hidden;points=[[0,0.5],[1,0.5]];portConstraint=eastwest;rotatable=0;fontStyle=1;whiteSpace=wrap;" vertex="1" parent="-_FYaDfTA1gfNJCsHM5T-1">
          <mxGeometry y="360" width="180" height="30" as="geometry" />
        </mxCell>
        <mxCell id="-_FYaDfTA1gfNJCsHM5T-14" value="void *card" style="text;strokeColor=#82b366;fillColor=#d5e8d4;align=left;verticalAlign=middle;spacingLeft=4;spacingRight=4;overflow=hidden;points=[[0,0.5],[1,0.5]];portConstraint=eastwest;rotatable=0;fontStyle=1;whiteSpace=wrap;" vertex="1" parent="-_FYaDfTA1gfNJCsHM5T-1">
          <mxGeometry y="390" width="180" height="30" as="geometry" />
        </mxCell>
        <mxCell id="-_FYaDfTA1gfNJCsHM5T-15" value="void *cd" style="text;strokeColor=#82b366;fillColor=#d5e8d4;align=left;verticalAlign=middle;spacingLeft=4;spacingRight=4;overflow=hidden;points=[[0,0.5],[1,0.5]];portConstraint=eastwest;rotatable=0;fontStyle=1;whiteSpace=wrap;" vertex="1" parent="-_FYaDfTA1gfNJCsHM5T-1">
          <mxGeometry y="420" width="180" height="30" as="geometry" />
        </mxCell>
        <mxCell id="-_FYaDfTA1gfNJCsHM5T-16" value="void *cardInt" style="text;strokeColor=#82b366;fillColor=#d5e8d4;align=left;verticalAlign=middle;spacingLeft=4;spacingRight=4;overflow=hidden;points=[[0,0.5],[1,0.5]];portConstraint=eastwest;rotatable=0;fontStyle=1;whiteSpace=wrap;" vertex="1" parent="-_FYaDfTA1gfNJCsHM5T-1">
          <mxGeometry y="450" width="180" height="30" as="geometry" />
        </mxCell>
        <mxCell id="-_FYaDfTA1gfNJCsHM5T-17" value="sdmmc_osa_mutex_t lock" style="text;strokeColor=#82b366;fillColor=#d5e8d4;align=left;verticalAlign=middle;spacingLeft=4;spacingRight=4;overflow=hidden;points=[[0,0.5],[1,0.5]];portConstraint=eastwest;rotatable=0;fontStyle=1;whiteSpace=wrap;" vertex="1" parent="-_FYaDfTA1gfNJCsHM5T-1">
          <mxGeometry y="480" width="180" height="30" as="geometry" />
        </mxCell>
        <mxCell id="-_FYaDfTA1gfNJCsHM5T-18" value="为了兼容 fsdifhost_dev_t 和 fsdmmchost_dev_t&#xa;这样的兼容只意味着兼容 ops 的相同的接口的不同操作" style="text;align=center;verticalAlign=middle;resizable=0;points=[];autosize=1;strokeColor=#6c8ebf;fillColor=#dae8fc;fontStyle=1" vertex="1" parent="1">
          <mxGeometry x="440" y="250" width="310" height="40" as="geometry" />
        </mxCell>
        <mxCell id="-_FYaDfTA1gfNJCsHM5T-19" value="fsdifhost_dev_t" style="swimlane;fontStyle=1;childLayout=stackLayout;horizontal=1;startSize=30;horizontalStack=0;resizeParent=1;resizeParentMax=0;resizeLast=0;collapsible=1;marginBottom=0;whiteSpace=wrap;fillColor=#60a917;strokeColor=#2D7600;fontColor=#ffffff;" vertex="1" parent="1">
          <mxGeometry x="760" y="210" width="180" height="270" as="geometry" />
        </mxCell>
        <mxCell id="-_FYaDfTA1gfNJCsHM5T-20" value="sdmmchost_t *instance" style="text;strokeColor=#6c8ebf;fillColor=#dae8fc;align=left;verticalAlign=middle;spacingLeft=4;spacingRight=4;overflow=hidden;points=[[0,0.5],[1,0.5]];portConstraint=eastwest;rotatable=0;whiteSpace=wrap;fontStyle=1;" vertex="1" parent="-_FYaDfTA1gfNJCsHM5T-19">
          <mxGeometry y="30" width="180" height="30" as="geometry" />
        </mxCell>
        <mxCell id="-_FYaDfTA1gfNJCsHM5T-36" value="FSdif hc" style="text;strokeColor=#82b366;fillColor=#d5e8d4;align=left;verticalAlign=middle;spacingLeft=4;spacingRight=4;overflow=hidden;points=[[0,0.5],[1,0.5]];portConstraint=eastwest;rotatable=0;whiteSpace=wrap;fontStyle=1;" vertex="1" parent="-_FYaDfTA1gfNJCsHM5T-19">
          <mxGeometry y="60" width="180" height="30" as="geometry" />
        </mxCell>
        <mxCell id="-_FYaDfTA1gfNJCsHM5T-37" value="FSdifConfig hc_cfg" style="text;strokeColor=#82b366;fillColor=#d5e8d4;align=left;verticalAlign=middle;spacingLeft=4;spacingRight=4;overflow=hidden;points=[[0,0.5],[1,0.5]];portConstraint=eastwest;rotatable=0;whiteSpace=wrap;fontStyle=1;" vertex="1" parent="-_FYaDfTA1gfNJCsHM5T-19">
          <mxGeometry y="90" width="180" height="30" as="geometry" />
        </mxCell>
        <mxCell id="-_FYaDfTA1gfNJCsHM5T-38" value="FSdifCmdData cmd_pkg" style="text;strokeColor=#82b366;fillColor=#d5e8d4;align=left;verticalAlign=middle;spacingLeft=4;spacingRight=4;overflow=hidden;points=[[0,0.5],[1,0.5]];portConstraint=eastwest;rotatable=0;whiteSpace=wrap;fontStyle=1;" vertex="1" parent="-_FYaDfTA1gfNJCsHM5T-19">
          <mxGeometry y="120" width="180" height="30" as="geometry" />
        </mxCell>
        <mxCell id="-_FYaDfTA1gfNJCsHM5T-40" value="FSdifData dat_pkg" style="text;strokeColor=#82b366;fillColor=#d5e8d4;align=left;verticalAlign=middle;spacingLeft=4;spacingRight=4;overflow=hidden;points=[[0,0.5],[1,0.5]];portConstraint=eastwest;rotatable=0;whiteSpace=wrap;fontStyle=1;" vertex="1" parent="-_FYaDfTA1gfNJCsHM5T-19">
          <mxGeometry y="150" width="180" height="30" as="geometry" />
        </mxCell>
        <mxCell id="-_FYaDfTA1gfNJCsHM5T-41" value="FSdifIDmaDesc *rw_desc" style="text;strokeColor=#b85450;fillColor=#f8cecc;align=left;verticalAlign=middle;spacingLeft=4;spacingRight=4;overflow=hidden;points=[[0,0.5],[1,0.5]];portConstraint=eastwest;rotatable=0;whiteSpace=wrap;fontStyle=1;" vertex="1" parent="-_FYaDfTA1gfNJCsHM5T-19">
          <mxGeometry y="180" width="180" height="30" as="geometry" />
        </mxCell>
        <mxCell id="-_FYaDfTA1gfNJCsHM5T-42" value="uint32_t desc_num" style="text;strokeColor=#b85450;fillColor=#f8cecc;align=left;verticalAlign=middle;spacingLeft=4;spacingRight=4;overflow=hidden;points=[[0,0.5],[1,0.5]];portConstraint=eastwest;rotatable=0;whiteSpace=wrap;fontStyle=1;" vertex="1" parent="-_FYaDfTA1gfNJCsHM5T-19">
          <mxGeometry y="210" width="180" height="30" as="geometry" />
        </mxCell>
        <mxCell id="-_FYaDfTA1gfNJCsHM5T-39" value="sdmmc_osa_event_t hc_evt" style="text;strokeColor=#b85450;fillColor=#f8cecc;align=left;verticalAlign=middle;spacingLeft=4;spacingRight=4;overflow=hidden;points=[[0,0.5],[1,0.5]];portConstraint=eastwest;rotatable=0;whiteSpace=wrap;fontStyle=1;" vertex="1" parent="-_FYaDfTA1gfNJCsHM5T-19">
          <mxGeometry y="240" width="180" height="30" as="geometry" />
        </mxCell>
        <mxCell id="-_FYaDfTA1gfNJCsHM5T-44" value="fsdmmchost_dev_t" style="swimlane;fontStyle=1;childLayout=stackLayout;horizontal=1;startSize=30;horizontalStack=0;resizeParent=1;resizeParentMax=0;resizeLast=0;collapsible=1;marginBottom=0;whiteSpace=wrap;fillColor=#60a917;strokeColor=#2D7600;fontColor=#FFFFFF;" vertex="1" parent="1">
          <mxGeometry x="980" y="240" width="180" height="270" as="geometry" />
        </mxCell>
        <mxCell id="-_FYaDfTA1gfNJCsHM5T-45" value="FSdmmc hc" style="text;strokeColor=#82b366;fillColor=#d5e8d4;align=left;verticalAlign=middle;spacingLeft=4;spacingRight=4;overflow=hidden;points=[[0,0.5],[1,0.5]];portConstraint=eastwest;rotatable=0;whiteSpace=wrap;fontStyle=1;" vertex="1" parent="-_FYaDfTA1gfNJCsHM5T-44">
          <mxGeometry y="30" width="180" height="30" as="geometry" />
        </mxCell>
        <mxCell id="-_FYaDfTA1gfNJCsHM5T-46" value="FSdmmcConfig hc_cfg" style="text;strokeColor=#82b366;fillColor=#d5e8d4;align=left;verticalAlign=middle;spacingLeft=4;spacingRight=4;overflow=hidden;points=[[0,0.5],[1,0.5]];portConstraint=eastwest;rotatable=0;whiteSpace=wrap;fontStyle=1;" vertex="1" parent="-_FYaDfTA1gfNJCsHM5T-44">
          <mxGeometry y="60" width="180" height="30" as="geometry" />
        </mxCell>
        <mxCell id="-_FYaDfTA1gfNJCsHM5T-47" value="FSdmmcCmd cmd_pkg" style="text;strokeColor=#82b366;fillColor=#d5e8d4;align=left;verticalAlign=middle;spacingLeft=4;spacingRight=4;overflow=hidden;points=[[0,0.5],[1,0.5]];portConstraint=eastwest;rotatable=0;whiteSpace=wrap;fontStyle=1;" vertex="1" parent="-_FYaDfTA1gfNJCsHM5T-44">
          <mxGeometry y="90" width="180" height="30" as="geometry" />
        </mxCell>
        <mxCell id="-_FYaDfTA1gfNJCsHM5T-48" value="FSdmmcData dat_pkg" style="text;strokeColor=#82b366;fillColor=#d5e8d4;align=left;verticalAlign=middle;spacingLeft=4;spacingRight=4;overflow=hidden;points=[[0,0.5],[1,0.5]];portConstraint=eastwest;rotatable=0;whiteSpace=wrap;fontStyle=1;" vertex="1" parent="-_FYaDfTA1gfNJCsHM5T-44">
          <mxGeometry y="120" width="180" height="30" as="geometry" />
        </mxCell>
        <mxCell id="-_FYaDfTA1gfNJCsHM5T-49" value="volatile boolean cmd_done" style="text;strokeColor=#b85450;fillColor=#f8cecc;align=left;verticalAlign=middle;spacingLeft=4;spacingRight=4;overflow=hidden;points=[[0,0.5],[1,0.5]];portConstraint=eastwest;rotatable=0;whiteSpace=wrap;fontStyle=1;" vertex="1" parent="-_FYaDfTA1gfNJCsHM5T-44">
          <mxGeometry y="150" width="180" height="30" as="geometry" />
        </mxCell>
        <mxCell id="-_FYaDfTA1gfNJCsHM5T-50" value="volatile boolean data_done" style="text;strokeColor=#b85450;fillColor=#f8cecc;align=left;verticalAlign=middle;spacingLeft=4;spacingRight=4;overflow=hidden;points=[[0,0.5],[1,0.5]];portConstraint=eastwest;rotatable=0;whiteSpace=wrap;fontStyle=1;" vertex="1" parent="-_FYaDfTA1gfNJCsHM5T-44">
          <mxGeometry y="180" width="180" height="30" as="geometry" />
        </mxCell>
        <mxCell id="-_FYaDfTA1gfNJCsHM5T-51" value="volatile boolean cmd_error" style="text;strokeColor=#b85450;fillColor=#f8cecc;align=left;verticalAlign=middle;spacingLeft=4;spacingRight=4;overflow=hidden;points=[[0,0.5],[1,0.5]];portConstraint=eastwest;rotatable=0;whiteSpace=wrap;fontStyle=1;" vertex="1" parent="-_FYaDfTA1gfNJCsHM5T-44">
          <mxGeometry y="210" width="180" height="30" as="geometry" />
        </mxCell>
        <mxCell id="-_FYaDfTA1gfNJCsHM5T-52" value="volatile boolean data_error" style="text;strokeColor=#b85450;fillColor=#f8cecc;align=left;verticalAlign=middle;spacingLeft=4;spacingRight=4;overflow=hidden;points=[[0,0.5],[1,0.5]];portConstraint=eastwest;rotatable=0;whiteSpace=wrap;fontStyle=1;" vertex="1" parent="-_FYaDfTA1gfNJCsHM5T-44">
          <mxGeometry y="240" width="180" height="30" as="geometry" />
        </mxCell>
        <mxCell id="-_FYaDfTA1gfNJCsHM5T-53" value="sdmmchost_ops_t" style="swimlane;fontStyle=1;childLayout=stackLayout;horizontal=1;startSize=30;horizontalStack=0;resizeParent=1;resizeParentMax=0;resizeLast=0;collapsible=1;marginBottom=0;whiteSpace=wrap;fillColor=#60a917;strokeColor=#2D7600;fontColor=#ffffff;html=1;" vertex="1" parent="1">
          <mxGeometry x="-100" y="-70" width="260" height="750" as="geometry" />
        </mxCell>
        <mxCell id="-_FYaDfTA1gfNJCsHM5T-54" value="void (*deinit)(sdmmchost_t *host);" style="text;strokeColor=#82b366;fillColor=#d5e8d4;align=left;verticalAlign=middle;spacingLeft=4;spacingRight=4;overflow=hidden;points=[[0,0.5],[1,0.5]];portConstraint=eastwest;rotatable=0;fontStyle=1;whiteSpace=wrap;" vertex="1" parent="-_FYaDfTA1gfNJCsHM5T-53">
          <mxGeometry y="30" width="260" height="30" as="geometry" />
        </mxCell>
        <mxCell id="-_FYaDfTA1gfNJCsHM5T-55" value=" status_t (*reset)(sdmmchost_t *host);" style="text;strokeColor=#82b366;fillColor=#d5e8d4;align=left;verticalAlign=middle;spacingLeft=4;spacingRight=4;overflow=hidden;points=[[0,0.5],[1,0.5]];portConstraint=eastwest;rotatable=0;fontStyle=1;whiteSpace=wrap;" vertex="1" parent="-_FYaDfTA1gfNJCsHM5T-53">
          <mxGeometry y="60" width="260" height="30" as="geometry" />
        </mxCell>
        <mxCell id="-_FYaDfTA1gfNJCsHM5T-56" value="void (*switchToVoltage)(sdmmchost_t *host, uint32_t voltage);" style="text;strokeColor=#82b366;fillColor=#d5e8d4;align=left;verticalAlign=middle;spacingLeft=4;spacingRight=4;overflow=hidden;points=[[0,0.5],[1,0.5]];portConstraint=eastwest;rotatable=0;fontStyle=1;whiteSpace=wrap;" vertex="1" parent="-_FYaDfTA1gfNJCsHM5T-53">
          <mxGeometry y="90" width="260" height="30" as="geometry" />
        </mxCell>
        <mxCell id="-_FYaDfTA1gfNJCsHM5T-57" value=" status_t (*executeTuning)(sdmmchost_t *host,&#xa;                              uint32_t tuningCmd,&#xa;                              uint32_t *revBuf,&#xa;                              uint32_t blockSize);" style="text;strokeColor=#82b366;fillColor=#d5e8d4;align=left;verticalAlign=middle;spacingLeft=4;spacingRight=4;overflow=hidden;points=[[0,0.5],[1,0.5]];portConstraint=eastwest;rotatable=0;fontStyle=1;whiteSpace=wrap;" vertex="1" parent="-_FYaDfTA1gfNJCsHM5T-53">
          <mxGeometry y="120" width="260" height="30" as="geometry" />
        </mxCell>
        <mxCell id="-_FYaDfTA1gfNJCsHM5T-58" value=" void (*enableDDRMode)(sdmmchost_t *host, bool enable, &#xa;                          uint32_t nibblePos);" style="text;strokeColor=#82b366;fillColor=#d5e8d4;align=left;verticalAlign=middle;spacingLeft=4;spacingRight=4;overflow=hidden;points=[[0,0.5],[1,0.5]];portConstraint=eastwest;rotatable=0;fontStyle=1;whiteSpace=wrap;" vertex="1" parent="-_FYaDfTA1gfNJCsHM5T-53">
          <mxGeometry y="150" width="260" height="30" as="geometry" />
        </mxCell>
        <mxCell id="-_FYaDfTA1gfNJCsHM5T-59" value="void (*enableHS400Mode)(sdmmchost_t *host, bool enable);" style="text;strokeColor=#82b366;fillColor=#d5e8d4;align=left;verticalAlign=middle;spacingLeft=4;spacingRight=4;overflow=hidden;points=[[0,0.5],[1,0.5]];portConstraint=eastwest;rotatable=0;fontStyle=1;whiteSpace=wrap;" vertex="1" parent="-_FYaDfTA1gfNJCsHM5T-53">
          <mxGeometry y="180" width="260" height="30" as="geometry" />
        </mxCell>
        <mxCell id="-_FYaDfTA1gfNJCsHM5T-60" value="void (*enableStrobeDll)(sdmmchost_t *host, bool enable);" style="text;strokeColor=#82b366;fillColor=#d5e8d4;align=left;verticalAlign=middle;spacingLeft=4;spacingRight=4;overflow=hidden;points=[[0,0.5],[1,0.5]];portConstraint=eastwest;rotatable=0;fontStyle=1;whiteSpace=wrap;" vertex="1" parent="-_FYaDfTA1gfNJCsHM5T-53">
          <mxGeometry y="210" width="260" height="30" as="geometry" />
        </mxCell>
        <mxCell id="-_FYaDfTA1gfNJCsHM5T-61" value="uint32_t (*getSignalLineStatus)(sdmmchost_t *host, uint32_t signalLine);" style="text;strokeColor=#82b366;fillColor=#d5e8d4;align=left;verticalAlign=middle;spacingLeft=4;spacingRight=4;overflow=hidden;points=[[0,0.5],[1,0.5]];portConstraint=eastwest;rotatable=0;fontStyle=1;whiteSpace=wrap;" vertex="1" parent="-_FYaDfTA1gfNJCsHM5T-53">
          <mxGeometry y="240" width="260" height="30" as="geometry" />
        </mxCell>
        <mxCell id="-_FYaDfTA1gfNJCsHM5T-62" value="void (*convertDataToLittleEndian)(sdmmchost_t *host, uint32_t *data, uint32_t wordSize, uint32_t format);" style="text;strokeColor=#82b366;fillColor=#d5e8d4;align=left;verticalAlign=middle;spacingLeft=4;spacingRight=4;overflow=hidden;points=[[0,0.5],[1,0.5]];portConstraint=eastwest;rotatable=0;fontStyle=1;whiteSpace=wrap;" vertex="1" parent="-_FYaDfTA1gfNJCsHM5T-53">
          <mxGeometry y="270" width="260" height="30" as="geometry" />
        </mxCell>
        <mxCell id="-_FYaDfTA1gfNJCsHM5T-63" value="status_t (*cardDetectInit)(sdmmchost_t *host, void *cd);" style="text;strokeColor=#82b366;fillColor=#d5e8d4;align=left;verticalAlign=middle;spacingLeft=4;spacingRight=4;overflow=hidden;points=[[0,0.5],[1,0.5]];portConstraint=eastwest;rotatable=0;fontStyle=1;whiteSpace=wrap;" vertex="1" parent="-_FYaDfTA1gfNJCsHM5T-53">
          <mxGeometry y="300" width="260" height="30" as="geometry" />
        </mxCell>
        <mxCell id="-_FYaDfTA1gfNJCsHM5T-64" value="void (*cardSetPower)(sdmmchost_t *host, bool enable);" style="text;strokeColor=#82b366;fillColor=#d5e8d4;align=left;verticalAlign=middle;spacingLeft=4;spacingRight=4;overflow=hidden;points=[[0,0.5],[1,0.5]];portConstraint=eastwest;rotatable=0;fontStyle=1;whiteSpace=wrap;" vertex="1" parent="-_FYaDfTA1gfNJCsHM5T-53">
          <mxGeometry y="330" width="260" height="30" as="geometry" />
        </mxCell>
        <mxCell id="-_FYaDfTA1gfNJCsHM5T-65" value="void (*cardForceClockOn)(sdmmchost_t *host, bool enable);" style="text;strokeColor=#82b366;fillColor=#d5e8d4;align=left;verticalAlign=middle;spacingLeft=4;spacingRight=4;overflow=hidden;points=[[0,0.5],[1,0.5]];portConstraint=eastwest;rotatable=0;fontStyle=1;whiteSpace=wrap;" vertex="1" parent="-_FYaDfTA1gfNJCsHM5T-53">
          <mxGeometry y="360" width="260" height="30" as="geometry" />
        </mxCell>
        <mxCell id="-_FYaDfTA1gfNJCsHM5T-66" value="void (*cardEnableInt)(sdmmchost_t *host, bool enable);" style="text;strokeColor=#82b366;fillColor=#d5e8d4;align=left;verticalAlign=middle;spacingLeft=4;spacingRight=4;overflow=hidden;points=[[0,0.5],[1,0.5]];portConstraint=eastwest;rotatable=0;fontStyle=1;whiteSpace=wrap;" vertex="1" parent="-_FYaDfTA1gfNJCsHM5T-53">
          <mxGeometry y="390" width="260" height="30" as="geometry" />
        </mxCell>
        <mxCell id="-_FYaDfTA1gfNJCsHM5T-67" value="void (*cardSetBusWidth)(sdmmchost_t *host, uint32_t dataBusWidth);" style="text;strokeColor=#82b366;fillColor=#d5e8d4;align=left;verticalAlign=middle;spacingLeft=4;spacingRight=4;overflow=hidden;points=[[0,0.5],[1,0.5]];portConstraint=eastwest;rotatable=0;fontStyle=1;whiteSpace=wrap;" vertex="1" parent="-_FYaDfTA1gfNJCsHM5T-53">
          <mxGeometry y="420" width="260" height="30" as="geometry" />
        </mxCell>
        <mxCell id="-_FYaDfTA1gfNJCsHM5T-68" value="status_t (*cardIntInit)(sdmmchost_t *host, void *sdioInt);" style="text;strokeColor=#82b366;fillColor=#d5e8d4;align=left;verticalAlign=middle;spacingLeft=4;spacingRight=4;overflow=hidden;points=[[0,0.5],[1,0.5]];portConstraint=eastwest;rotatable=0;fontStyle=1;whiteSpace=wrap;" vertex="1" parent="-_FYaDfTA1gfNJCsHM5T-53">
          <mxGeometry y="450" width="260" height="30" as="geometry" />
        </mxCell>
        <mxCell id="-_FYaDfTA1gfNJCsHM5T-69" value="status_t (*cardPollingDetectStatus)(sdmmchost_t *host, uint32_t waitCardStatus, uint32_t timeout);" style="text;strokeColor=#82b366;fillColor=#d5e8d4;align=left;verticalAlign=middle;spacingLeft=4;spacingRight=4;overflow=hidden;points=[[0,0.5],[1,0.5]];portConstraint=eastwest;rotatable=0;fontStyle=1;whiteSpace=wrap;" vertex="1" parent="-_FYaDfTA1gfNJCsHM5T-53">
          <mxGeometry y="480" width="260" height="30" as="geometry" />
        </mxCell>
        <mxCell id="-_FYaDfTA1gfNJCsHM5T-70" value="uint32_t (*cardDetectStatus)(sdmmchost_t *host);" style="text;strokeColor=#82b366;fillColor=#d5e8d4;align=left;verticalAlign=middle;spacingLeft=4;spacingRight=4;overflow=hidden;points=[[0,0.5],[1,0.5]];portConstraint=eastwest;rotatable=0;fontStyle=1;whiteSpace=wrap;" vertex="1" parent="-_FYaDfTA1gfNJCsHM5T-53">
          <mxGeometry y="510" width="260" height="30" as="geometry" />
        </mxCell>
        <mxCell id="-_FYaDfTA1gfNJCsHM5T-71" value="void (*cardSendActive)(sdmmchost_t *host);" style="text;strokeColor=#82b366;fillColor=#d5e8d4;align=left;verticalAlign=middle;spacingLeft=4;spacingRight=4;overflow=hidden;points=[[0,0.5],[1,0.5]];portConstraint=eastwest;rotatable=0;fontStyle=1;whiteSpace=wrap;" vertex="1" parent="-_FYaDfTA1gfNJCsHM5T-53">
          <mxGeometry y="540" width="260" height="30" as="geometry" />
        </mxCell>
        <mxCell id="-_FYaDfTA1gfNJCsHM5T-72" value=" uint32_t (*cardSetClock)(sdmmchost_t *host, uint32_t targetClock);" style="text;strokeColor=#82b366;fillColor=#d5e8d4;align=left;verticalAlign=middle;spacingLeft=4;spacingRight=4;overflow=hidden;points=[[0,0.5],[1,0.5]];portConstraint=eastwest;rotatable=0;fontStyle=1;whiteSpace=wrap;" vertex="1" parent="-_FYaDfTA1gfNJCsHM5T-53">
          <mxGeometry y="570" width="260" height="30" as="geometry" />
        </mxCell>
        <mxCell id="-_FYaDfTA1gfNJCsHM5T-73" value="bool (*cardIsBusy)(sdmmchost_t *host);" style="text;strokeColor=#82b366;fillColor=#d5e8d4;align=left;verticalAlign=middle;spacingLeft=4;spacingRight=4;overflow=hidden;points=[[0,0.5],[1,0.5]];portConstraint=eastwest;rotatable=0;fontStyle=1;whiteSpace=wrap;" vertex="1" parent="-_FYaDfTA1gfNJCsHM5T-53">
          <mxGeometry y="600" width="260" height="30" as="geometry" />
        </mxCell>
        <mxCell id="-_FYaDfTA1gfNJCsHM5T-74" value="status_t (*transferFunction)(sdmmchost_t *host, sdmmchost_transfer_t *content);" style="text;strokeColor=#82b366;fillColor=#d5e8d4;align=left;verticalAlign=middle;spacingLeft=4;spacingRight=4;overflow=hidden;points=[[0,0.5],[1,0.5]];portConstraint=eastwest;rotatable=0;fontStyle=1;whiteSpace=wrap;" vertex="1" parent="-_FYaDfTA1gfNJCsHM5T-53">
          <mxGeometry y="630" width="260" height="30" as="geometry" />
        </mxCell>
        <mxCell id="-_FYaDfTA1gfNJCsHM5T-75" value="status_t (*startBoot)(sdmmchost_t *host,&#xa;                          sdmmchost_boot_config_t *hostConfig,&#xa;                          sdmmchost_cmd_t *cmd,&#xa;                          uint8_t *buffer);" style="text;strokeColor=#82b366;fillColor=#d5e8d4;align=left;verticalAlign=middle;spacingLeft=4;spacingRight=4;overflow=hidden;points=[[0,0.5],[1,0.5]];portConstraint=eastwest;rotatable=0;fontStyle=1;whiteSpace=wrap;" vertex="1" parent="-_FYaDfTA1gfNJCsHM5T-53">
          <mxGeometry y="660" width="260" height="30" as="geometry" />
        </mxCell>
        <mxCell id="-_FYaDfTA1gfNJCsHM5T-76" value="status_t (*readBootData)(sdmmchost_t *host, &#xa;                          sdmmchost_boot_config_t *hostConfig, &#xa;                          uint8_t *buffer);" style="text;strokeColor=#82b366;fillColor=#d5e8d4;align=left;verticalAlign=middle;spacingLeft=4;spacingRight=4;overflow=hidden;points=[[0,0.5],[1,0.5]];portConstraint=eastwest;rotatable=0;fontStyle=1;whiteSpace=wrap;" vertex="1" parent="-_FYaDfTA1gfNJCsHM5T-53">
          <mxGeometry y="690" width="260" height="30" as="geometry" />
        </mxCell>
        <mxCell id="-_FYaDfTA1gfNJCsHM5T-77" value="void (*enableBoot)(sdmmchost_t *host, bool enable);" style="text;strokeColor=#82b366;fillColor=#d5e8d4;align=left;verticalAlign=middle;spacingLeft=4;spacingRight=4;overflow=hidden;points=[[0,0.5],[1,0.5]];portConstraint=eastwest;rotatable=0;fontStyle=1;whiteSpace=wrap;" vertex="1" parent="-_FYaDfTA1gfNJCsHM5T-53">
          <mxGeometry y="720" width="260" height="30" as="geometry" />
        </mxCell>
        <mxCell id="-_FYaDfTA1gfNJCsHM5T-78" value="&lt;b&gt;这里的解决方法是用:Enum来表示 dev&amp;nbsp;&lt;/b&gt;&lt;div&gt;&lt;b&gt;然后这些 dev 是必须实现了 ops 这个trait 的&lt;/b&gt;&lt;/div&gt;" style="text;html=1;align=center;verticalAlign=middle;resizable=0;points=[];autosize=1;strokeColor=#6c8ebf;fillColor=#dae8fc;" vertex="1" parent="1">
          <mxGeometry x="470" y="323" width="260" height="40" as="geometry" />
        </mxCell>
        <mxCell id="-_FYaDfTA1gfNJCsHM5T-79" value="&lt;b&gt;一些方法需要反过来用到 host 的内容&lt;/b&gt;&lt;div&gt;&lt;b&gt;怎么定义这些方法呢?&lt;/b&gt;&lt;/div&gt;&lt;div&gt;&lt;b&gt;1. dev 反过来要引用原来的 host&lt;/b&gt;&lt;/div&gt;&lt;div&gt;&lt;b&gt;2. 方法要求传入 host&lt;/b&gt;&lt;/div&gt;" style="text;html=1;align=center;verticalAlign=middle;resizable=0;points=[];autosize=1;strokeColor=#6c8ebf;fillColor=#dae8fc;" vertex="1" parent="1">
          <mxGeometry x="490" y="400" width="220" height="70" as="geometry" />
        </mxCell>
        <mxCell id="-_FYaDfTA1gfNJCsHM5T-80" value="sdmmchost_t" style="swimlane;fontStyle=1;childLayout=stackLayout;horizontal=1;startSize=30;horizontalStack=0;resizeParent=1;resizeParentMax=0;resizeLast=0;collapsible=1;marginBottom=0;whiteSpace=wrap;fillColor=#60a917;strokeColor=#2D7600;fontColor=#ffffff;" vertex="1" parent="1">
          <mxGeometry x="370" y="820" width="180" height="510" as="geometry" />
        </mxCell>
        <mxCell id="-_FYaDfTA1gfNJCsHM5T-81" value="void *dev" style="text;strokeColor=#82b366;fillColor=#d5e8d4;align=left;verticalAlign=middle;spacingLeft=4;spacingRight=4;overflow=hidden;points=[[0,0.5],[1,0.5]];portConstraint=eastwest;rotatable=0;whiteSpace=wrap;fontStyle=1;html=1;" vertex="1" parent="-_FYaDfTA1gfNJCsHM5T-80">
          <mxGeometry y="30" width="180" height="30" as="geometry" />
        </mxCell>
        <mxCell id="-_FYaDfTA1gfNJCsHM5T-82" value="sdmmchost_ops_t ops" style="text;strokeColor=#82b366;fillColor=#d5e8d4;align=left;verticalAlign=middle;spacingLeft=4;spacingRight=4;overflow=hidden;points=[[0,0.5],[1,0.5]];portConstraint=eastwest;rotatable=0;fontStyle=1;whiteSpace=wrap;" vertex="1" parent="-_FYaDfTA1gfNJCsHM5T-80">
          <mxGeometry y="60" width="180" height="30" as="geometry" />
        </mxCell>
        <mxCell id="-_FYaDfTA1gfNJCsHM5T-83" value="sdmmchost_config_t config" style="text;strokeColor=#82b366;fillColor=#d5e8d4;align=left;verticalAlign=middle;spacingLeft=4;spacingRight=4;overflow=hidden;points=[[0,0.5],[1,0.5]];portConstraint=eastwest;rotatable=0;fontStyle=1;whiteSpace=wrap;" vertex="1" parent="-_FYaDfTA1gfNJCsHM5T-80">
          <mxGeometry y="90" width="180" height="30" as="geometry" />
        </mxCell>
        <mxCell id="-_FYaDfTA1gfNJCsHM5T-84" value="uint32_t currVoltage" style="text;strokeColor=#82b366;fillColor=#d5e8d4;align=left;verticalAlign=middle;spacingLeft=4;spacingRight=4;overflow=hidden;points=[[0,0.5],[1,0.5]];portConstraint=eastwest;rotatable=0;fontStyle=1;whiteSpace=wrap;" vertex="1" parent="-_FYaDfTA1gfNJCsHM5T-80">
          <mxGeometry y="120" width="180" height="30" as="geometry" />
        </mxCell>
        <mxCell id="-_FYaDfTA1gfNJCsHM5T-85" value="uint32_t currBusWidth" style="text;strokeColor=#82b366;fillColor=#d5e8d4;align=left;verticalAlign=middle;spacingLeft=4;spacingRight=4;overflow=hidden;points=[[0,0.5],[1,0.5]];portConstraint=eastwest;rotatable=0;fontStyle=1;whiteSpace=wrap;" vertex="1" parent="-_FYaDfTA1gfNJCsHM5T-80">
          <mxGeometry y="150" width="180" height="30" as="geometry" />
        </mxCell>
        <mxCell id="-_FYaDfTA1gfNJCsHM5T-86" value="uint32_t currClockFreq" style="text;strokeColor=#82b366;fillColor=#d5e8d4;align=left;verticalAlign=middle;spacingLeft=4;spacingRight=4;overflow=hidden;points=[[0,0.5],[1,0.5]];portConstraint=eastwest;rotatable=0;fontStyle=1;whiteSpace=wrap;" vertex="1" parent="-_FYaDfTA1gfNJCsHM5T-80">
          <mxGeometry y="180" width="180" height="30" as="geometry" />
        </mxCell>
        <mxCell id="-_FYaDfTA1gfNJCsHM5T-87" value="uint32_t sourceClock_Hz" style="text;strokeColor=#82b366;fillColor=#d5e8d4;align=left;verticalAlign=middle;spacingLeft=4;spacingRight=4;overflow=hidden;points=[[0,0.5],[1,0.5]];portConstraint=eastwest;rotatable=0;fontStyle=1;whiteSpace=wrap;" vertex="1" parent="-_FYaDfTA1gfNJCsHM5T-80">
          <mxGeometry y="210" width="180" height="30" as="geometry" />
        </mxCell>
        <mxCell id="-_FYaDfTA1gfNJCsHM5T-88" value="uint32_t capability" style="text;strokeColor=#82b366;fillColor=#d5e8d4;align=left;verticalAlign=middle;spacingLeft=4;spacingRight=4;overflow=hidden;points=[[0,0.5],[1,0.5]];portConstraint=eastwest;rotatable=0;fontStyle=1;whiteSpace=wrap;" vertex="1" parent="-_FYaDfTA1gfNJCsHM5T-80">
          <mxGeometry y="240" width="180" height="30" as="geometry" />
        </mxCell>
        <mxCell id="-_FYaDfTA1gfNJCsHM5T-89" value="uint32_t maxBlockCount" style="text;strokeColor=#82b366;fillColor=#d5e8d4;align=left;verticalAlign=middle;spacingLeft=4;spacingRight=4;overflow=hidden;points=[[0,0.5],[1,0.5]];portConstraint=eastwest;rotatable=0;fontStyle=1;whiteSpace=wrap;" vertex="1" parent="-_FYaDfTA1gfNJCsHM5T-80">
          <mxGeometry y="270" width="180" height="30" as="geometry" />
        </mxCell>
        <mxCell id="-_FYaDfTA1gfNJCsHM5T-90" value="uint32_t maxBlockSize" style="text;strokeColor=#82b366;fillColor=#d5e8d4;align=left;verticalAlign=middle;spacingLeft=4;spacingRight=4;overflow=hidden;points=[[0,0.5],[1,0.5]];portConstraint=eastwest;rotatable=0;fontStyle=1;whiteSpace=wrap;" vertex="1" parent="-_FYaDfTA1gfNJCsHM5T-80">
          <mxGeometry y="300" width="180" height="30" as="geometry" />
        </mxCell>
        <mxCell id="-_FYaDfTA1gfNJCsHM5T-91" value="uint8_t tuningType" style="text;strokeColor=#666666;fillColor=#f5f5f5;align=left;verticalAlign=middle;spacingLeft=4;spacingRight=4;overflow=hidden;points=[[0,0.5],[1,0.5]];portConstraint=eastwest;rotatable=0;fontStyle=1;whiteSpace=wrap;fontColor=#333333;" vertex="1" parent="-_FYaDfTA1gfNJCsHM5T-80">
          <mxGeometry y="330" width="180" height="30" as="geometry" />
        </mxCell>
        <mxCell id="-_FYaDfTA1gfNJCsHM5T-92" value="sdmmc_osa_event_t hostEvent" style="text;strokeColor=#666666;fillColor=#f5f5f5;align=left;verticalAlign=middle;spacingLeft=4;spacingRight=4;overflow=hidden;points=[[0,0.5],[1,0.5]];portConstraint=eastwest;rotatable=0;fontStyle=1;whiteSpace=wrap;fontColor=#333333;" vertex="1" parent="-_FYaDfTA1gfNJCsHM5T-80">
          <mxGeometry y="360" width="180" height="30" as="geometry" />
        </mxCell>
        <mxCell id="-_FYaDfTA1gfNJCsHM5T-93" value="void *card" style="text;strokeColor=#82b366;fillColor=#d5e8d4;align=left;verticalAlign=middle;spacingLeft=4;spacingRight=4;overflow=hidden;points=[[0,0.5],[1,0.5]];portConstraint=eastwest;rotatable=0;fontStyle=1;whiteSpace=wrap;" vertex="1" parent="-_FYaDfTA1gfNJCsHM5T-80">
          <mxGeometry y="390" width="180" height="30" as="geometry" />
        </mxCell>
        <mxCell id="-_FYaDfTA1gfNJCsHM5T-94" value="void *cd" style="text;strokeColor=#82b366;fillColor=#d5e8d4;align=left;verticalAlign=middle;spacingLeft=4;spacingRight=4;overflow=hidden;points=[[0,0.5],[1,0.5]];portConstraint=eastwest;rotatable=0;fontStyle=1;whiteSpace=wrap;" vertex="1" parent="-_FYaDfTA1gfNJCsHM5T-80">
          <mxGeometry y="420" width="180" height="30" as="geometry" />
        </mxCell>
        <mxCell id="-_FYaDfTA1gfNJCsHM5T-95" value="void *cardInt" style="text;strokeColor=#82b366;fillColor=#d5e8d4;align=left;verticalAlign=middle;spacingLeft=4;spacingRight=4;overflow=hidden;points=[[0,0.5],[1,0.5]];portConstraint=eastwest;rotatable=0;fontStyle=1;whiteSpace=wrap;" vertex="1" parent="-_FYaDfTA1gfNJCsHM5T-80">
          <mxGeometry y="450" width="180" height="30" as="geometry" />
        </mxCell>
        <mxCell id="-_FYaDfTA1gfNJCsHM5T-96" value="sdmmc_osa_mutex_t lock" style="text;strokeColor=#666666;fillColor=#f5f5f5;align=left;verticalAlign=middle;spacingLeft=4;spacingRight=4;overflow=hidden;points=[[0,0.5],[1,0.5]];portConstraint=eastwest;rotatable=0;fontStyle=1;whiteSpace=wrap;fontColor=#333333;" vertex="1" parent="-_FYaDfTA1gfNJCsHM5T-80">
          <mxGeometry y="480" width="180" height="30" as="geometry" />
        </mxCell>
        <mxCell id="-_FYaDfTA1gfNJCsHM5T-97" value="sdmmchost_t" style="swimlane;fontStyle=1;childLayout=stackLayout;horizontal=1;startSize=30;horizontalStack=0;resizeParent=1;resizeParentMax=0;resizeLast=0;collapsible=1;marginBottom=0;whiteSpace=wrap;fillColor=#60a917;strokeColor=#2D7600;fontColor=#ffffff;" vertex="1" parent="1">
          <mxGeometry x="370" y="1370" width="180" height="510" as="geometry" />
        </mxCell>
        <mxCell id="-_FYaDfTA1gfNJCsHM5T-98" value="void *dev" style="text;strokeColor=#82b366;fillColor=#d5e8d4;align=left;verticalAlign=middle;spacingLeft=4;spacingRight=4;overflow=hidden;points=[[0,0.5],[1,0.5]];portConstraint=eastwest;rotatable=0;whiteSpace=wrap;fontStyle=1;html=1;" vertex="1" parent="-_FYaDfTA1gfNJCsHM5T-97">
          <mxGeometry y="30" width="180" height="30" as="geometry" />
        </mxCell>
        <mxCell id="-_FYaDfTA1gfNJCsHM5T-99" value="sdmmchost_ops_t ops" style="text;strokeColor=#82b366;fillColor=#d5e8d4;align=left;verticalAlign=middle;spacingLeft=4;spacingRight=4;overflow=hidden;points=[[0,0.5],[1,0.5]];portConstraint=eastwest;rotatable=0;fontStyle=1;whiteSpace=wrap;" vertex="1" parent="-_FYaDfTA1gfNJCsHM5T-97">
          <mxGeometry y="60" width="180" height="30" as="geometry" />
        </mxCell>
        <mxCell id="-_FYaDfTA1gfNJCsHM5T-100" value="sdmmchost_config_t config" style="text;strokeColor=#82b366;fillColor=#d5e8d4;align=left;verticalAlign=middle;spacingLeft=4;spacingRight=4;overflow=hidden;points=[[0,0.5],[1,0.5]];portConstraint=eastwest;rotatable=0;fontStyle=1;whiteSpace=wrap;" vertex="1" parent="-_FYaDfTA1gfNJCsHM5T-97">
          <mxGeometry y="90" width="180" height="30" as="geometry" />
        </mxCell>
        <mxCell id="-_FYaDfTA1gfNJCsHM5T-101" value="uint32_t currVoltage" style="text;strokeColor=#82b366;fillColor=#d5e8d4;align=left;verticalAlign=middle;spacingLeft=4;spacingRight=4;overflow=hidden;points=[[0,0.5],[1,0.5]];portConstraint=eastwest;rotatable=0;fontStyle=1;whiteSpace=wrap;" vertex="1" parent="-_FYaDfTA1gfNJCsHM5T-97">
          <mxGeometry y="120" width="180" height="30" as="geometry" />
        </mxCell>
        <mxCell id="-_FYaDfTA1gfNJCsHM5T-102" value="uint32_t currBusWidth" style="text;strokeColor=#82b366;fillColor=#d5e8d4;align=left;verticalAlign=middle;spacingLeft=4;spacingRight=4;overflow=hidden;points=[[0,0.5],[1,0.5]];portConstraint=eastwest;rotatable=0;fontStyle=1;whiteSpace=wrap;" vertex="1" parent="-_FYaDfTA1gfNJCsHM5T-97">
          <mxGeometry y="150" width="180" height="30" as="geometry" />
        </mxCell>
        <mxCell id="-_FYaDfTA1gfNJCsHM5T-103" value="uint32_t currClockFreq" style="text;strokeColor=#82b366;fillColor=#d5e8d4;align=left;verticalAlign=middle;spacingLeft=4;spacingRight=4;overflow=hidden;points=[[0,0.5],[1,0.5]];portConstraint=eastwest;rotatable=0;fontStyle=1;whiteSpace=wrap;" vertex="1" parent="-_FYaDfTA1gfNJCsHM5T-97">
          <mxGeometry y="180" width="180" height="30" as="geometry" />
        </mxCell>
        <mxCell id="-_FYaDfTA1gfNJCsHM5T-104" value="uint32_t sourceClock_Hz" style="text;strokeColor=#82b366;fillColor=#d5e8d4;align=left;verticalAlign=middle;spacingLeft=4;spacingRight=4;overflow=hidden;points=[[0,0.5],[1,0.5]];portConstraint=eastwest;rotatable=0;fontStyle=1;whiteSpace=wrap;" vertex="1" parent="-_FYaDfTA1gfNJCsHM5T-97">
          <mxGeometry y="210" width="180" height="30" as="geometry" />
        </mxCell>
        <mxCell id="-_FYaDfTA1gfNJCsHM5T-105" value="uint32_t capability" style="text;strokeColor=#b85450;fillColor=#f8cecc;align=left;verticalAlign=middle;spacingLeft=4;spacingRight=4;overflow=hidden;points=[[0,0.5],[1,0.5]];portConstraint=eastwest;rotatable=0;fontStyle=1;whiteSpace=wrap;" vertex="1" parent="-_FYaDfTA1gfNJCsHM5T-97">
          <mxGeometry y="240" width="180" height="30" as="geometry" />
        </mxCell>
        <mxCell id="-_FYaDfTA1gfNJCsHM5T-106" value="uint32_t maxBlockCount" style="text;strokeColor=#82b366;fillColor=#d5e8d4;align=left;verticalAlign=middle;spacingLeft=4;spacingRight=4;overflow=hidden;points=[[0,0.5],[1,0.5]];portConstraint=eastwest;rotatable=0;fontStyle=1;whiteSpace=wrap;" vertex="1" parent="-_FYaDfTA1gfNJCsHM5T-97">
          <mxGeometry y="270" width="180" height="30" as="geometry" />
        </mxCell>
        <mxCell id="-_FYaDfTA1gfNJCsHM5T-107" value="uint32_t maxBlockSize" style="text;strokeColor=#82b366;fillColor=#d5e8d4;align=left;verticalAlign=middle;spacingLeft=4;spacingRight=4;overflow=hidden;points=[[0,0.5],[1,0.5]];portConstraint=eastwest;rotatable=0;fontStyle=1;whiteSpace=wrap;" vertex="1" parent="-_FYaDfTA1gfNJCsHM5T-97">
          <mxGeometry y="300" width="180" height="30" as="geometry" />
        </mxCell>
        <mxCell id="-_FYaDfTA1gfNJCsHM5T-108" value="uint8_t tuningType" style="text;strokeColor=#82b366;fillColor=#d5e8d4;align=left;verticalAlign=middle;spacingLeft=4;spacingRight=4;overflow=hidden;points=[[0,0.5],[1,0.5]];portConstraint=eastwest;rotatable=0;fontStyle=1;whiteSpace=wrap;" vertex="1" parent="-_FYaDfTA1gfNJCsHM5T-97">
          <mxGeometry y="330" width="180" height="30" as="geometry" />
        </mxCell>
        <mxCell id="-_FYaDfTA1gfNJCsHM5T-109" value="sdmmc_osa_event_t hostEvent" style="text;strokeColor=#82b366;fillColor=#d5e8d4;align=left;verticalAlign=middle;spacingLeft=4;spacingRight=4;overflow=hidden;points=[[0,0.5],[1,0.5]];portConstraint=eastwest;rotatable=0;fontStyle=1;whiteSpace=wrap;" vertex="1" parent="-_FYaDfTA1gfNJCsHM5T-97">
          <mxGeometry y="360" width="180" height="30" as="geometry" />
        </mxCell>
        <mxCell id="-_FYaDfTA1gfNJCsHM5T-110" value="void *card" style="text;strokeColor=#82b366;fillColor=#d5e8d4;align=left;verticalAlign=middle;spacingLeft=4;spacingRight=4;overflow=hidden;points=[[0,0.5],[1,0.5]];portConstraint=eastwest;rotatable=0;fontStyle=1;whiteSpace=wrap;" vertex="1" parent="-_FYaDfTA1gfNJCsHM5T-97">
          <mxGeometry y="390" width="180" height="30" as="geometry" />
        </mxCell>
        <mxCell id="-_FYaDfTA1gfNJCsHM5T-111" value="void *cd" style="text;strokeColor=#82b366;fillColor=#d5e8d4;align=left;verticalAlign=middle;spacingLeft=4;spacingRight=4;overflow=hidden;points=[[0,0.5],[1,0.5]];portConstraint=eastwest;rotatable=0;fontStyle=1;whiteSpace=wrap;" vertex="1" parent="-_FYaDfTA1gfNJCsHM5T-97">
          <mxGeometry y="420" width="180" height="30" as="geometry" />
        </mxCell>
        <mxCell id="-_FYaDfTA1gfNJCsHM5T-112" value="void *cardInt" style="text;strokeColor=#82b366;fillColor=#d5e8d4;align=left;verticalAlign=middle;spacingLeft=4;spacingRight=4;overflow=hidden;points=[[0,0.5],[1,0.5]];portConstraint=eastwest;rotatable=0;fontStyle=1;whiteSpace=wrap;" vertex="1" parent="-_FYaDfTA1gfNJCsHM5T-97">
          <mxGeometry y="450" width="180" height="30" as="geometry" />
        </mxCell>
        <mxCell id="-_FYaDfTA1gfNJCsHM5T-113" value="sdmmc_osa_mutex_t lock" style="text;strokeColor=#82b366;fillColor=#d5e8d4;align=left;verticalAlign=middle;spacingLeft=4;spacingRight=4;overflow=hidden;points=[[0,0.5],[1,0.5]];portConstraint=eastwest;rotatable=0;fontStyle=1;whiteSpace=wrap;" vertex="1" parent="-_FYaDfTA1gfNJCsHM5T-97">
          <mxGeometry y="480" width="180" height="30" as="geometry" />
        </mxCell>
        <mxCell id="-_FYaDfTA1gfNJCsHM5T-114" value="&lt;b&gt;这个要用 bitflag 进行管理&lt;/b&gt;" style="text;html=1;align=center;verticalAlign=middle;resizable=0;points=[];autosize=1;strokeColor=#6c8ebf;fillColor=#dae8fc;" vertex="1" parent="1">
          <mxGeometry x="580" y="1610" width="160" height="30" as="geometry" />
        </mxCell>
        <mxCell id="-_FYaDfTA1gfNJCsHM5T-115" value="Host 的功能是 通过协议层获取 SD卡的一些功能 并且围绕这个进行 数据的储存 这样抽象的数据结构 并且围绕数据构建的方法" style="text;html=1;align=center;verticalAlign=middle;resizable=0;points=[];autosize=1;strokeColor=#6c8ebf;fillColor=#dae8fc;fontStyle=1" vertex="1" parent="1">
          <mxGeometry x="150" y="1950" width="690" height="30" as="geometry" />
        </mxCell>
        <mxCell id="-_FYaDfTA1gfNJCsHM5T-116" value="sdmmchost_config_t" style="swimlane;fontStyle=1;childLayout=stackLayout;horizontal=1;startSize=30;horizontalStack=0;resizeParent=1;resizeParentMax=0;resizeLast=0;collapsible=1;marginBottom=0;whiteSpace=wrap;fillColor=#60a917;strokeColor=#2D7600;html=1;swimlaneFillColor=none;fontColor=#ffffff;" vertex="1" parent="1">
          <mxGeometry x="1550" y="1450" width="180" height="420" as="geometry" />
        </mxCell>
        <mxCell id="-_FYaDfTA1gfNJCsHM5T-117" value="uint32_t hostId" style="text;strokeColor=#82b366;fillColor=#d5e8d4;align=left;verticalAlign=middle;spacingLeft=4;spacingRight=4;overflow=hidden;points=[[0,0.5],[1,0.5]];portConstraint=eastwest;rotatable=0;whiteSpace=wrap;fontStyle=1;html=1;" vertex="1" parent="-_FYaDfTA1gfNJCsHM5T-116">
          <mxGeometry y="30" width="180" height="30" as="geometry" />
        </mxCell>
        <mxCell id="-_FYaDfTA1gfNJCsHM5T-118" value="uint32_t hostType" style="text;strokeColor=#82b366;fillColor=#d5e8d4;align=left;verticalAlign=middle;spacingLeft=4;spacingRight=4;overflow=hidden;points=[[0,0.5],[1,0.5]];portConstraint=eastwest;rotatable=0;whiteSpace=wrap;fontStyle=1;html=1;" vertex="1" parent="-_FYaDfTA1gfNJCsHM5T-116">
          <mxGeometry y="60" width="180" height="30" as="geometry" />
        </mxCell>
        <mxCell id="-_FYaDfTA1gfNJCsHM5T-119" value="uint32_t cardType" style="text;strokeColor=#82b366;fillColor=#d5e8d4;align=left;verticalAlign=middle;spacingLeft=4;spacingRight=4;overflow=hidden;points=[[0,0.5],[1,0.5]];portConstraint=eastwest;rotatable=0;whiteSpace=wrap;fontStyle=1;html=1;" vertex="1" parent="-_FYaDfTA1gfNJCsHM5T-116">
          <mxGeometry y="90" width="180" height="30" as="geometry" />
        </mxCell>
        <mxCell id="-_FYaDfTA1gfNJCsHM5T-120" value="bool     enableIrq" style="text;strokeColor=#82b366;fillColor=#d5e8d4;align=left;verticalAlign=middle;spacingLeft=4;spacingRight=4;overflow=hidden;points=[[0,0.5],[1,0.5]];portConstraint=eastwest;rotatable=0;whiteSpace=wrap;fontStyle=1" vertex="1" parent="-_FYaDfTA1gfNJCsHM5T-116">
          <mxGeometry y="120" width="180" height="30" as="geometry" />
        </mxCell>
        <mxCell id="-_FYaDfTA1gfNJCsHM5T-121" value="bool     enableDMA" style="text;strokeColor=#82b366;fillColor=#d5e8d4;align=left;verticalAlign=middle;spacingLeft=4;spacingRight=4;overflow=hidden;points=[[0,0.5],[1,0.5]];portConstraint=eastwest;rotatable=0;whiteSpace=wrap;fontStyle=1;html=1;" vertex="1" parent="-_FYaDfTA1gfNJCsHM5T-116">
          <mxGeometry y="150" width="180" height="30" as="geometry" />
        </mxCell>
        <mxCell id="-_FYaDfTA1gfNJCsHM5T-122" value="uint32_t endianMode" style="text;strokeColor=#82b366;fillColor=#d5e8d4;align=left;verticalAlign=middle;spacingLeft=4;spacingRight=4;overflow=hidden;points=[[0,0.5],[1,0.5]];portConstraint=eastwest;rotatable=0;whiteSpace=wrap;fontStyle=1;html=1;" vertex="1" parent="-_FYaDfTA1gfNJCsHM5T-116">
          <mxGeometry y="180" width="180" height="30" as="geometry" />
        </mxCell>
        <mxCell id="-_FYaDfTA1gfNJCsHM5T-123" value="size_t   maxTransSize" style="text;strokeColor=#82b366;fillColor=#d5e8d4;align=left;verticalAlign=middle;spacingLeft=4;spacingRight=4;overflow=hidden;points=[[0,0.5],[1,0.5]];portConstraint=eastwest;rotatable=0;whiteSpace=wrap;fontStyle=1;html=1;" vertex="1" parent="-_FYaDfTA1gfNJCsHM5T-116">
          <mxGeometry y="210" width="180" height="30" as="geometry" />
        </mxCell>
        <mxCell id="-_FYaDfTA1gfNJCsHM5T-124" value="size_t   defBlockSize" style="text;strokeColor=#82b366;fillColor=#d5e8d4;align=left;verticalAlign=middle;spacingLeft=4;spacingRight=4;overflow=hidden;points=[[0,0.5],[1,0.5]];portConstraint=eastwest;rotatable=0;whiteSpace=wrap;fontStyle=1;" vertex="1" parent="-_FYaDfTA1gfNJCsHM5T-116">
          <mxGeometry y="240" width="180" height="30" as="geometry" />
        </mxCell>
        <mxCell id="-_FYaDfTA1gfNJCsHM5T-125" value="uint32_t cardClock" style="text;strokeColor=#82b366;fillColor=#d5e8d4;align=left;verticalAlign=middle;spacingLeft=4;spacingRight=4;overflow=hidden;points=[[0,0.5],[1,0.5]];portConstraint=eastwest;rotatable=0;whiteSpace=wrap;fontStyle=1;" vertex="1" parent="-_FYaDfTA1gfNJCsHM5T-116">
          <mxGeometry y="270" width="180" height="30" as="geometry" />
        </mxCell>
        <mxCell id="-_FYaDfTA1gfNJCsHM5T-126" value="bool     isUHSCard" style="text;strokeColor=#82b366;fillColor=#d5e8d4;align=left;verticalAlign=middle;spacingLeft=4;spacingRight=4;overflow=hidden;points=[[0,0.5],[1,0.5]];portConstraint=eastwest;rotatable=0;whiteSpace=wrap;fontStyle=1;" vertex="1" parent="-_FYaDfTA1gfNJCsHM5T-116">
          <mxGeometry y="300" width="180" height="30" as="geometry" />
        </mxCell>
        <mxCell id="-_FYaDfTA1gfNJCsHM5T-127" value="void     *timeTuner" style="text;strokeColor=#6c8ebf;fillColor=#dae8fc;align=left;verticalAlign=middle;spacingLeft=4;spacingRight=4;overflow=hidden;points=[[0,0.5],[1,0.5]];portConstraint=eastwest;rotatable=0;whiteSpace=wrap;fontStyle=1;" vertex="1" parent="-_FYaDfTA1gfNJCsHM5T-116">
          <mxGeometry y="330" width="180" height="30" as="geometry" />
        </mxCell>
        <mxCell id="-_FYaDfTA1gfNJCsHM5T-128" value="void    (*sdioCardInt)(void *userData)" style="text;strokeColor=#6c8ebf;fillColor=#dae8fc;align=left;verticalAlign=middle;spacingLeft=4;spacingRight=4;overflow=hidden;points=[[0,0.5],[1,0.5]];portConstraint=eastwest;rotatable=0;whiteSpace=wrap;fontStyle=1;" vertex="1" parent="-_FYaDfTA1gfNJCsHM5T-116">
          <mxGeometry y="360" width="180" height="30" as="geometry" />
        </mxCell>
        <mxCell id="-_FYaDfTA1gfNJCsHM5T-129" value="void     *sdioCardIntArg" style="text;strokeColor=#6c8ebf;fillColor=#dae8fc;align=left;verticalAlign=middle;spacingLeft=4;spacingRight=4;overflow=hidden;points=[[0,0.5],[1,0.5]];portConstraint=eastwest;rotatable=0;whiteSpace=wrap;fontStyle=1;" vertex="1" parent="-_FYaDfTA1gfNJCsHM5T-116">
          <mxGeometry y="390" width="180" height="30" as="geometry" />
        </mxCell>
        <mxCell id="-_FYaDfTA1gfNJCsHM5T-130" value="实现方法可能又要绕回到函数指针" style="text;html=1;align=center;verticalAlign=middle;resizable=0;points=[];autosize=1;strokeColor=#6c8ebf;fillColor=#dae8fc;fontStyle=1" vertex="1" parent="1">
          <mxGeometry x="2015" y="1810" width="200" height="30" as="geometry" />
        </mxCell>
      </root>
    </mxGraphModel>
  </diagram>
</mxfile>
